<?xml version="1.0" encoding="utf-8"?>
<!-- Generator: Adobe Illustrator 15.0.0, SVG Export Plug-In . SVG Version: 6.00 Build 0)  -->
<!DOCTYPE svg PUBLIC "-//W3C//DTD SVG 1.1//EN" "http://www.w3.org/Graphics/SVG/1.1/DTD/svg11.dtd">
<svg version="1.1" id="Layer_1" xmlns="http://www.w3.org/2000/svg" xmlns:xlink="http://www.w3.org/1999/xlink" x="0px" y="0px"
	 width="54.724px" height="54.268px" viewBox="0 0 54.724 54.268" enable-background="new 0 0 54.724 54.268" xml:space="preserve">
<rect x="-436.776" y="-448.863" display="none" fill="#00FFFF" stroke="#000000" stroke-miterlimit="10" width="707" height="739"/>
<g id="ACHmOE_1_">
	<g>
		<path display="none" fill-rule="evenodd" clip-rule="evenodd" fill="#FFFFFF" d="M11.557,9.674
			c1.278,0.65,2.102,1.759,2.428,3.361c2.015-0.533,5.267-0.533,7.283,0c0.296-1.694,1.369-2.613,2.427-3.549
			C20.108,8.27,14.876,8.029,11.557,9.674z M6.7,13.781c0.064,1.081,0.66,1.759,1.682,2.242c1.376-0.802,2.486-1.872,4.107-2.429
			C12.328,9.359,6.5,10.391,6.7,13.781z M27.056,16.21c0.938-0.093,1.663-1.919,1.495-3.175c-0.364-2.692-5.555-3.498-5.791,0.56
			C24.676,13.473,25.742,16.338,27.056,16.21z M5.208,28.161c0.388,3.471,2.496,6.577,4.854,7.843
			c0.442-1.611,2.264-0.584,3.15-1.751c-3.36-4.878,0.771-7.13,2.078-9.453c1.666-2.964,1.391-6.212,1.681-10.831
			C9.833,14.438,4.31,20.139,5.208,28.161z M18.465,13.969c0.189,4.105,0.064,7.683,1.308,10.271
			c1.281,2.665,4.396,4.182,3.175,8.216c0.996,1.059,2.102,2.007,2.428,3.735C34.555,30.311,29.593,13.534,18.465,13.969z
			 M12.863,30.589c-0.056,6.324,10.009,6.202,9.711-0.188c-0.188-4.014-4.677-5.709-5.042-10.083
			C17.504,25.501,12.902,26.191,12.863,30.589z"/>
		<path fill-rule="evenodd" clip-rule="evenodd" fill="#FFFFFF" d="M35.78,3.68c-1.473,1.301-2.968,2.582-3.382,4.942
			c-2.81-0.743-7.337-0.743-10.146,0c-0.453-2.234-1.6-3.777-3.381-4.683C23.495,1.648,30.784,1.982,35.78,3.68z"/>
		<path fill-rule="evenodd" clip-rule="evenodd" fill="#FFFFFF" d="M20.204,9.305c-2.861,1.008-4.357,2.211-5.755,3.479
			c-1.423-0.674-2.253-1.616-2.341-3.122C11.829,4.938,19.979,3.403,20.204,9.305z"/>
		<path fill-rule="evenodd" clip-rule="evenodd" fill="#FFFFFF" d="M34.544,9.272c0.329-5.653,7.023-4.39,7.999-0.65
			c0.236,1.749-0.774,4.294-2.08,4.422C39.195,11.386,37.048,9.825,34.544,9.272z"/>
		<path fill-rule="evenodd" clip-rule="evenodd" fill="#FFFFFF" d="M52.169,24.229c0.227,1.951,0.357,3.349,0,5.983
			c-1.456,19.864-27.968,28.925-42.142,15.088c-3.904-3.812-6.409-8.816-7.544-15.608c-0.261-2.602-0.13-3.349,0-4.942
			c0.965-6.406,3.865-12.262,7.544-15.088c0.141,2.547,1.463,3.869,2.86,5.203c-11.089,12.772-0.85,31.97,14.828,31.736
			c13.145-0.195,23.628-14.751,16.909-28.095c-0.622-1.236-1.594-2.991-2.602-3.901c1.463-1.27,2.648-2.555,2.602-5.203
			C48.503,12.981,51.011,17.931,52.169,24.229z"/>
		<path fill-rule="evenodd" clip-rule="evenodd" fill="#FFFFFF" d="M26.415,9.923c-0.403,6.434-0.02,10.96-2.341,15.088
			c-2.017,3.023-5.311,5.069-3.902,10.405c-1.236,1.624-2.766,2.957-3.382,5.202c-3.284-1.765-6.223-6.093-6.763-10.926
			C8.776,18.518,16.472,10.576,26.415,9.923z M21.213,23.71c1.43-0.083,2.515-1.943,1.301-3.642
			C18.676,18.377,18.2,23.885,21.213,23.71z"/>
		<path fill-rule="evenodd" clip-rule="evenodd" fill="#FFFFFF" d="M38.121,40.879c-0.455-2.406-1.994-3.729-3.382-5.203
			c1.701-5.62-2.276-8.098-4.422-11.446c-1.98-3.475-1.559-8.589-1.82-14.307C43.996,9.316,50.91,32.688,38.121,40.879z
			 M33.958,23.71c1.432-0.083,2.516-1.943,1.302-3.642C31.139,18.312,30.946,23.885,33.958,23.71z"/>
		<path fill-rule="evenodd" clip-rule="evenodd" fill="#FFFFFF" d="M27.196,18.768c0.508,6.093,6.761,8.455,7.023,14.047
			c0.417,8.9-13.605,9.068-13.527,0.261C20.746,26.949,27.156,25.986,27.196,18.768z M24.854,32.554
			c0.423,1.431,0.683,2.731,2.342,3.382c1.918-0.455,2.471-2.569,2.601-3.382C28.679,32.133,25.974,32.133,24.854,32.554z"/>
		<path display="none" fill-rule="evenodd" clip-rule="evenodd" fill="#FFFFFF" d="M14.17,21.252
			c0.872,1.22,0.093,2.555-0.934,2.614C11.074,23.993,11.212,19.991,14.17,21.252z"/>
		<path display="none" fill-rule="evenodd" clip-rule="evenodd" fill="#FFFFFF" d="M23.321,21.252
			c0.871,1.22,0.093,2.555-0.934,2.614C20.224,23.993,20.362,19.991,23.321,21.252z"/>
		<path display="none" fill-rule="evenodd" clip-rule="evenodd" fill="#FFFFFF" d="M19.399,30.215
			c-0.069,1.238-0.865,1.749-1.494,2.428c-1.269-0.225-1.552-1.436-2.054-2.428C16.654,29.913,18.597,29.913,19.399,30.215z"/>
	</g>
</g>
</svg>
