<?xml version="1.0" encoding="utf-8"?>
<!-- Generator: Adobe Illustrator 15.0.0, SVG Export Plug-In . SVG Version: 6.00 Build 0)  -->
<!DOCTYPE svg PUBLIC "-//W3C//DTD SVG 1.1//EN" "http://www.w3.org/Graphics/SVG/1.1/DTD/svg11.dtd">
<svg version="1.1" id="Layer_1" xmlns="http://www.w3.org/2000/svg" xmlns:xlink="http://www.w3.org/1999/xlink" x="0px" y="0px"
	 width="288.271px" height="55.537px" viewBox="599.852 1085.062 288.271 55.537"
	 enable-background="new 599.852 1085.062 288.271 55.537" xml:space="preserve">
<g id="LpaqbP_1_" display="none">
	<g display="inline">
		<path fill="#FFFFFF" d="M29.59,1003.848c479.195,0,958.344,0,1437.533,0c0,64.44,0,128.881,0,193.321
			c-479.023,0-957.902,0-1436.943,0c-0.685,0.096-1.049-0.131-1.179-0.589c0-63.656,0-127.309,0-190.964
			C28.95,1004.779,28.903,1003.947,29.59,1003.848z M123.893,1004.438c-38.851,2.679-69.248,22.994-64.834,63.654
			c2.53,23.298,21.244,35.553,38.9,44.794c12.672,6.634,31.285,13.427,25.344,32.416c-8.229,26.302-62.348,12.98-76.622,1.77
			c-5.324,10.393-11.684,19.751-16.502,30.648c39.753,25.582,115.532,20.764,130.846-18.86c6.194-16.029,4.812-38.444-3.537-50.688
			c-5.817-8.53-15.662-14.775-24.754-20.041c-11.702-6.772-29.25-11.809-32.417-24.753c-8.639-35.316,53.866-29.393,67.19-14.734
			c5.183-10.143,10.908-19.741,16.503-29.471C166.158,1010.614,149.72,1002.656,123.893,1004.438z M529.985,1050.999
			c-2.404-31.381-41.92-48.799-80.157-44.204c-13.222,1.589-28.125,1.794-40.668,4.715c-14.211,59.46-28.125,119.224-42.438,178.585
			c13.163,0,26.327,0,39.49,0c5.682-22.02,10.605-44.798,16.503-66.601c7.073,0,14.146,0,21.218,0
			c11.096,19.749,18.631,43.061,25.935,66.601c14.146-0.392,29.86,0.786,43.025-0.589c-8.536-25.846-18.6-50.162-29.47-73.675
			C514.648,1108.205,532.546,1084.414,529.985,1050.999z M226.448,1010.92c-4.698,18.074-9.759,38.57-14.735,59.529
			c-4.862,20.478-11.709,41.629-12.967,61.887c-1.377,22.183,4.875,40.24,16.503,49.509c28.747,22.911,85.705,11.121,105.501-11.787
			c15.879-18.376,20.995-48.245,27.702-76.622c6.637-28.08,14.956-58.357,20.629-84.282c-13.36,0-26.719,0-40.079,0
			c-4.853,23.269-11.453,47.443-17.682,74.263c-5.113,22.013-9.601,56.111-23.576,68.369c-8.64,7.578-27.619,10.705-39.489,4.127
			c-16.206-8.983-8.088-34.956-4.126-51.868c7.525-32.113,14.59-65.211,22.397-94.891c-13.163,0-26.326,0-39.489,0
			C226.35,1009.251,226.397,1010.084,226.448,1010.92z M1001.501,1009.153c-52.321,3.848-89.449,46.251-95.481,98.428
			c-3.403,29.446-0.419,58.714,20.039,75.442c21.438,17.528,70.793,17.569,96.07,1.18c-0.518-5.77-1.49-11.083-2.355-16.504
			c-14.305,6.955-35.694,13.161-56.582,11.198c-25.594-2.404-36.349-23.869-37.723-45.974
			c-3.293-53.019,26.842-102.65,74.854-106.091c21.59-1.547,31.206,4.403,45.384,11.198c3.318-5.325,5.844-11.444,8.841-17.094
			C1040.379,1012.885,1024.225,1007.481,1001.501,1009.153z M1125.863,1015.047c-25.953,9.326-44.392,25.733-57.762,51.276
			c-20.367,38.914-18.556,99.001,14.146,120.235c21.938,14.247,53.865,11.001,72.495,2.947
			c21.421-9.261,37.747-26.131,47.741-41.847c11.692-18.39,19.337-39.48,18.859-70.729c-0.648-42.629-27.069-70.871-71.904-67.19
			C1139.512,1010.557,1133.05,1012.464,1125.863,1015.047z M694.427,1058.072c5.44-53.108-64.013-51.573-103.732-41.258
			c-13.532,57.588-27.536,114.703-41.259,172.104c57.489,14.085,140.776,3.618,133.793-60.708
			c-1.638-15.075-11.4-24.837-22.986-30.059C678.221,1089.55,692.253,1079.296,694.427,1058.072z M745.704,1013.867
			c-14,59.674-28.943,118.404-42.438,178.586c5.053,0.902,13.828,1.021,18.86,0c14.593-58.885,29.839-120.26,42.438-179.175
			c-4.57-1.324-11.555-0.235-17.093-0.589C746.775,1012.975,746.136,1013.318,745.704,1013.867z M788.14,1013.867
			c-1.445,5.037-2.634,10.333-3.536,15.914c16.912,1.358,36.336,0.208,54.227,0.59c-12.551,53.854-27.041,108.914-38.312,162.082
			c4.791,0.972,13.48,0.972,18.271,0c14.325-53.062,25.543-109.232,40.079-162.082c17.687-0.389,36.93,0.779,53.635-0.59
			c1.971-4.906,2.952-10.801,4.127-16.503c-41.063-1.372-84.675-0.199-126.72-0.589
			C789.212,1012.975,788.572,1013.318,788.14,1013.867z M1275.57,1013.867c-14.179,59.104-29.654,120.053-42.438,178.586
			c4.982,0.973,13.879,0.973,18.86,0c14.345-59.132,29.591-120.509,42.438-179.175c-4.57-1.324-11.554-0.235-17.093-0.589
			C1276.641,1012.975,1276.001,1013.318,1275.57,1013.867z M1334.51,1013.867c-14,59.674-28.943,118.404-42.437,178.586
			c5.101,0.953,13.759,0.953,18.858,0c12.561-50.312,23.552-102.187,37.133-151.475c23.661,46.478,40.88,99.396,58.351,152.063
			c5.698,0,11.396,0,17.093,0c15.502-58.759,29.072-119.455,43.025-179.765c-5.102-0.952-13.76-0.952-18.86,0
			c-11.399,48.522-22.386,97.457-34.185,145.58c-15.756-53.203-35.49-102.43-60.708-146.17c-5.501,0-11.002,0-16.502,0
			C1335.58,1012.975,1334.939,1013.318,1334.51,1013.867z"/>
		<path d="M184.011,1019.172c-5.596,9.729-11.321,19.328-16.503,29.47c-13.324-14.656-75.829-20.581-67.19,14.735
			c3.166,12.944,20.715,17.979,32.417,24.753c9.093,5.265,18.938,11.51,24.754,20.041c8.349,12.243,9.73,34.658,3.537,50.688
			c-15.314,39.624-91.092,44.442-130.846,18.86c4.819-10.897,11.178-20.257,16.502-30.648c14.273,11.212,68.393,24.532,76.622-1.77
			c5.941-18.99-12.672-25.783-25.344-32.416c-17.656-9.242-36.371-21.496-38.9-44.794c-4.414-40.66,25.983-60.976,64.834-63.655
			C149.72,1002.656,166.158,1010.614,184.011,1019.172z"/>
		<path d="M483.423,1115.832c10.87,23.513,20.935,47.829,29.47,73.675c-13.164,1.375-28.88,0.197-43.025,0.589
			c-7.305-23.541-14.838-46.852-25.935-66.601c-7.072,0-14.145,0-21.218,0c-5.897,21.803-10.82,44.581-16.503,66.601
			c-13.163,0-26.327,0-39.49,0c14.312-59.361,28.227-119.125,42.438-178.585c12.543-2.921,27.446-3.126,40.668-4.715
			c38.237-4.595,77.753,12.823,80.157,44.204C532.546,1084.414,514.648,1108.205,483.423,1115.832z M490.496,1063.377
			c0.24-22.291-24.147-25.49-48.33-22.396c-4.205,17.015-8.351,34.087-12.377,51.277
			C458.51,1093.373,490.207,1090.302,490.496,1063.377z"/>
		<path d="M227.037,1009.153c13.163,0,26.326,0,39.489,0c-7.807,29.68-14.872,62.777-22.397,94.891
			c-3.962,16.912-12.08,42.885,4.126,51.868c11.87,6.578,30.849,3.451,39.489-4.127c13.976-12.258,18.462-46.355,23.576-68.369
			c6.229-26.818,12.829-50.994,17.682-74.263c13.36,0,26.719,0,40.079,0c-5.673,25.924-13.992,56.202-20.629,84.283
			c-6.707,28.377-11.822,58.245-27.702,76.622c-19.796,22.907-76.754,34.697-105.501,11.786
			c-11.629-9.269-17.881-27.325-16.503-49.509c1.258-20.258,8.105-41.409,12.967-61.887c4.976-20.959,10.037-41.455,14.735-59.529
			C226.397,1010.084,226.35,1009.251,227.037,1009.153z"/>
		<path d="M1054.547,1020.939c-2.997,5.647-5.521,11.768-8.841,17.093c-14.178-6.795-23.794-12.745-45.384-11.198
			c-48.012,3.439-78.146,53.072-74.854,106.091c1.374,22.104,12.13,43.568,37.723,45.974c20.888,1.963,42.277-4.243,56.582-11.198
			c0.866,5.421,1.839,10.735,2.355,16.504c-25.276,16.391-74.634,16.35-96.069-1.18c-20.459-16.729-23.443-45.996-20.039-75.442
			c6.031-52.177,43.159-94.581,95.48-98.428C1024.225,1007.481,1040.379,1012.885,1054.547,1020.939z"/>
		<path d="M1149.439,1009.742c44.834-3.68,71.256,24.562,71.904,67.19c0.478,31.247-7.167,52.339-18.859,70.729
			c-9.994,15.716-26.32,32.586-47.741,41.847c-18.63,8.055-50.558,11.301-72.495-2.947c-32.701-21.234-34.514-81.321-14.146-120.235
			c13.37-25.543,31.809-41.951,57.762-51.276C1133.05,1012.464,1139.512,1010.557,1149.439,1009.742z M1092.268,1062.787
			c-11.027,16.888-19.222,45.732-17.092,73.084c1.557,20.009,12.171,35.034,28.291,40.669c25.611,8.953,51.9-3.635,66.602-17.093
			c20.388-18.664,34.543-54.377,30.647-91.945c-2.844-27.439-23.878-42.878-52.456-40.078
			C1122.763,1029.921,1103.554,1045.507,1092.268,1062.787z"/>
		<path d="M660.242,1098.151c11.585,5.222,21.349,14.982,22.986,30.059c6.982,64.326-76.305,74.793-133.793,60.708
			c13.723-57.399,27.727-114.516,41.259-172.104c39.72-10.315,109.173-11.852,103.732,41.258
			C692.253,1079.296,678.221,1089.55,660.242,1098.151z M672.029,1068.681c3.261-7.148,3.951-17.76,0-25.933
			c-8.275-17.121-40.199-14.83-64.833-12.967c-4.848,20.301-9.994,40.301-14.734,60.708
			C626.033,1091.541,661.753,1091.221,672.029,1068.681z M571.833,1175.951c34.231,4.232,76.728,0.582,87.819-24.166
			c3.414-7.616,5.192-19.219,1.769-28.879c-7.279-20.537-45.146-14.001-73.085-15.325
			C582.196,1129.732,577.355,1153.182,571.833,1175.951z"/>
		<path d="M747.473,1012.688c5.538,0.354,12.521-0.733,17.094,0.59c-12.6,58.916-27.846,120.291-42.438,179.175
			c-5.032,1.021-13.809,0.903-18.86,0c13.493-60.181,28.438-118.912,42.438-178.586
			C746.136,1013.318,746.775,1012.975,747.473,1012.688z"/>
		<path d="M789.909,1012.688c42.045,0.392,85.655-0.782,126.72,0.59c-1.175,5.701-2.156,11.597-4.127,16.503
			c-16.705,1.369-35.948,0.201-53.635,0.59c-14.536,52.85-25.754,109.02-40.079,162.082c-4.79,0.972-13.479,0.972-18.271,0
			c11.271-53.168,25.761-108.229,38.312-162.082c-17.892-0.382-37.313,0.77-54.226-0.59c0.901-5.582,2.09-10.877,3.535-15.914
			C788.572,1013.318,789.212,1012.975,789.909,1012.688z"/>
		<path d="M1277.338,1012.688c5.539,0.354,12.521-0.733,17.093,0.59c-12.847,58.667-28.093,120.043-42.438,179.175
			c-4.981,0.973-13.878,0.973-18.86,0c12.783-58.533,28.26-119.48,42.438-178.586
			C1276.001,1013.318,1276.641,1012.975,1277.338,1012.688z"/>
		<path d="M1336.278,1012.688c5.5,0,11.001,0,16.502,0c25.218,43.74,44.952,92.967,60.708,146.171
			c11.799-48.124,22.783-97.059,34.185-145.581c5.103-0.952,13.76-0.952,18.86,0c-13.953,60.31-27.523,121.006-43.025,179.765
			c-5.697,0-11.395,0-17.093,0c-17.471-52.668-34.688-105.587-58.351-152.063c-13.582,49.288-24.572,101.163-37.133,151.475
			c-5.101,0.953-13.759,0.953-18.858,0c13.491-60.182,28.437-118.912,42.437-178.586
			C1334.939,1013.318,1335.58,1012.975,1336.278,1012.688z"/>
		<path fill="#FFFFFF" d="M1148.26,1027.424c28.578-2.8,49.612,12.639,52.456,40.078c3.896,37.568-10.261,73.281-30.647,91.945
			c-14.7,13.458-40.989,26.046-66.602,17.093c-16.119-5.635-26.733-20.66-28.291-40.669c-2.13-27.352,6.063-56.196,17.093-73.084
			C1103.554,1045.507,1122.763,1029.921,1148.26,1027.424z"/>
		<path fill="#FFFFFF" d="M592.462,1090.489c4.74-20.407,9.887-40.407,14.734-60.708c24.634-1.863,56.558-4.154,64.833,12.967
			c3.951,8.173,3.261,18.783,0,25.933C661.753,1091.221,626.033,1091.541,592.462,1090.489z"/>
		<path fill="#FFFFFF" d="M429.789,1092.258c4.026-17.19,8.173-34.264,12.377-51.277c24.183-3.094,48.57,0.105,48.33,22.396
			C490.207,1090.302,458.51,1093.373,429.789,1092.258z"/>
		<path fill="#FFFFFF" d="M588.335,1107.581c27.939,1.324,65.806-5.212,73.085,15.325c3.424,9.66,1.646,21.263-1.769,28.879
			c-11.091,24.748-53.589,28.397-87.819,24.166C577.355,1153.182,582.196,1129.732,588.335,1107.581z"/>
	</g>
</g>
<text transform="matrix(1 0 0 1 615.9404 1127.2852)"><tspan x="0" y="0" fill="#FFFFFF" font-family="'Ubuntu-BoldItalic'" font-size="46.2193">SUR</tspan><tspan x="87.723" y="0" fill="#FFFFFF" font-family="'Ubuntu-LightItalic'" font-size="46.2193">BITCOIN</tspan></text>
</svg>
