<?xml version="1.0" encoding="utf-8"?>
<!-- Generator: Adobe Illustrator 15.0.0, SVG Export Plug-In . SVG Version: 6.00 Build 0)  -->
<!DOCTYPE svg PUBLIC "-//W3C//DTD SVG 1.1//EN" "http://www.w3.org/Graphics/SVG/1.1/DTD/svg11.dtd">
<svg version="1.1" id="Layer_1" xmlns="http://www.w3.org/2000/svg" xmlns:xlink="http://www.w3.org/1999/xlink" x="0px" y="0px"
	 width="74.349px" height="52.044px" viewBox="0 0 74.349 52.044" enable-background="new 0 0 74.349 52.044" xml:space="preserve">
<g id="_x38_t42cS_1_">
	<g>
		<path fill-rule="evenodd" clip-rule="evenodd" fill="#FFFFFF" d="M71.273,2.152c0,0.052,0,0.103,0,0.155
			c-2.198,3.174-4.198,6.548-6.199,9.92c-1.877,0.552-3.633,1.225-5.58,1.704c1.199,0.247,2.668,0.227,4.03,0.311
			c-0.599,1.262-1.45,2.271-2.016,3.565c-1.705,0.36-3.358,0.774-4.959,1.239c0.949,0.29,2.156,0.323,3.254,0.465
			c-0.673,1.496-1.649,2.69-2.479,4.03c-1.51,0.35-2.933,0.787-4.495,1.085c0,0,2.41,0.276,3.564,0.466
			c-0.886,1.438-1.951,2.697-2.789,4.184c-2.943,0.26-6.208,0.199-9.146,0.465c2.374,1.604,4.785,3.174,7.286,4.65l-3.875,2.635
			c-1.377-0.328-2.621-0.788-3.876-1.24c0.695,1.374,4.03,4.03,4.03,4.03c-1.271,0.693-2.418,1.509-3.72,2.171
			c-0.945-0.347-1.902-0.682-2.79-1.086c0.483,0.914,1.807,2.325,2.79,3.256c-2.183,2.055-4.802,3.672-6.976,5.734
			c-0.103,0-0.206,0-0.31,0c-2.236-2-4.893-3.58-6.975-5.734l2.48-3.256c0,0-1.757,0.724-2.635,1.086
			c-1.271-0.745-2.643-1.389-3.72-2.325c0,0,1.399-1.335,2.17-2.015c0.689-0.609,1.705-1.861,1.705-1.861
			c-1.063,0.541-2.379,0.825-3.565,1.24c-1.327-0.843-2.794-1.545-4.03-2.479c2.311-1.718,4.943-3.116,7.285-4.806
			c-2.937-0.266-6.202-0.205-9.145-0.465l-2.635-4.184c1.069-0.224,3.411-0.466,3.411-0.466s-2.985-0.735-4.495-1.085
			c-0.815-1.355-2.48-4.03-2.48-4.03l3.254-0.465c-1.602-0.465-3.254-0.879-4.96-1.239l-1.86-3.565
			c1.287-0.108,2.735-0.055,3.875-0.311c-1.94-0.487-3.694-1.162-5.58-1.704C7.239,8.734,4.948,5.652,3.075,2.152
			c10.263,5.547,20.189,11.431,30.535,16.895c0.769-1.613,0.567-4.263,0.155-5.58c1.765-0.146,3.675-0.149,5.425-0.31
			c0.406,1.35,1.921,1.593,3.875,1.395c0.118,0.842-0.245,1.201-0.155,2.015c-0.336-1.05-2.213-0.92-2.635,0
			c0.512,0.573,1.749,0.421,2.325,0.931c-0.887,0.199-2.189-0.019-2.48,0.775c0.134,0.171,0.279,0.602,0.31,0.93
			C50.851,13.659,60.83,7.673,71.273,2.152z"/>
	</g>
</g>
</svg>
